<svg width="35" height="35" viewBox="0 0 35 35" fill="none" xmlns="http://www.w3.org/2000/svg">
<mask id="mask0_222_1283" style="mask-type:alpha" maskUnits="userSpaceOnUse" x="0" y="0" width="35" height="35">
<rect width="35" height="35" fill="#D9D9D9"/>
</mask>
<g mask="url(#mask0_222_1283)">
<path d="M11.4479 20.1586C12.0966 20.8073 12.8932 21.1316 13.8377 21.1316C14.782 21.1316 15.5802 20.8073 16.2323 20.1586L21.6146 14.7766C22.2648 14.1262 22.5899 13.3287 22.5899 12.3842C22.5899 11.4399 22.2655 10.6417 21.6168 9.98959C20.9647 9.34088 20.1665 9.01652 19.2223 9.01652C18.2777 9.01652 17.4811 9.34088 16.8324 9.98959C16.008 9.69234 15.1909 9.62416 14.3813 9.78506C13.5717 9.94572 12.8865 10.3065 12.3258 10.8675C11.7648 11.4282 11.404 12.1134 11.2433 12.923C11.0824 13.7326 11.1506 14.5497 11.4479 15.3741C10.7992 16.0262 10.4748 16.8244 10.4748 17.7687C10.4748 18.7132 10.7992 19.5098 11.4479 20.1586ZM9.47913 31.3542V25.476C8.09371 24.2121 7.01819 22.7636 6.25256 21.1305C5.48694 19.4972 5.10413 17.7975 5.10413 16.0315C5.10413 12.591 6.30932 9.6667 8.7197 7.2585C11.1298 4.85006 14.0566 3.64584 17.5 3.64584C20.3325 3.64584 22.8654 4.49241 25.0986 6.18553C27.332 7.87841 28.7825 10.0748 29.4499 12.7746L31.2079 19.736C31.301 20.0957 31.2354 20.4206 31.0111 20.7105C30.7867 21.0007 30.4829 21.1458 30.0996 21.1458H26.9791V26.1563C26.9791 26.7788 26.7545 27.3146 26.3054 27.7638C25.8562 28.2129 25.3204 28.4375 24.6979 28.4375H21.1458V31.3542H19.3134V26.6051H24.6979C24.8289 26.6051 24.9365 26.5631 25.0206 26.479C25.1047 26.3949 25.1467 26.2873 25.1467 26.1563V19.3134H29.1929L27.6839 13.214C27.1149 10.9205 25.8781 9.05784 23.9735 7.626C22.0692 6.19416 19.9113 5.47824 17.5 5.47824C14.5709 5.47824 12.078 6.49579 10.0213 8.5309C7.96477 10.566 6.93652 13.0463 6.93652 15.9717C6.93652 17.4866 7.24593 18.9221 7.86475 20.2781C8.48357 21.6344 9.3576 22.8378 10.4868 23.8882L11.3115 24.6626V31.3542H9.47913Z" fill="#1C1B1F"/>
</g>
</svg>
