<svg width="31" height="31" viewBox="0 0 31 31" fill="none" xmlns="http://www.w3.org/2000/svg">
<mask id="mask0_222_1461" style="mask-type:alpha" maskUnits="userSpaceOnUse" x="0" y="0" width="31" height="31">
<rect width="30.6667" height="30.6667" fill="#D9D9D9"/>
</mask>
<g mask="url(#mask0_222_1461)">
<path d="M12.6509 17.545L15.3368 15.9232L18.0227 17.545L17.3049 14.4809L19.6765 12.4365L16.5679 12.1736L15.3368 9.28867L14.1057 12.1736L10.9972 12.4365L13.3687 14.4809L12.6509 17.545ZM7.03125 25.8752V6.38907C7.03125 5.8441 7.22707 5.37473 7.61871 4.98096C8.01035 4.5874 8.48078 4.39062 9.03001 4.39062H21.6436C22.1928 4.39062 22.6633 4.5874 23.0549 4.98096C23.4465 5.37473 23.6424 5.8441 23.6424 6.38907V25.8752L15.3368 22.3121L7.03125 25.8752ZM8.63678 23.4164L15.3368 20.5609L22.0368 23.4164V6.38907C22.0368 6.29089 21.9959 6.20081 21.9142 6.11882C21.8322 6.03683 21.742 5.99583 21.6436 5.99583H9.03001C8.93163 5.99583 8.84144 6.03683 8.75944 6.11882C8.67767 6.20081 8.63678 6.29089 8.63678 6.38907V23.4164Z" fill="#1C1B1F"/>
</g>
</svg>
