<svg width="78" height="78" viewBox="0 0 78 78" fill="none" xmlns="http://www.w3.org/2000/svg">
<circle cx="39" cy="39" r="39" fill="#F3E8FF"/>
<mask id="mask0_515_87" style="mask-type:alpha" maskUnits="userSpaceOnUse" x="19" y="19" width="40" height="40">
<rect x="19" y="19" width="40" height="40" fill="#D9D9D9"/>
</mask>
<g mask="url(#mask0_515_87)">
<path d="M32.0826 42.0391C32.824 42.7805 33.7344 43.1512 34.8139 43.1512C35.8931 43.1512 36.8053 42.7805 37.5506 42.0391L43.7018 35.8883C44.4449 35.145 44.8164 34.2336 44.8164 33.1541C44.8164 32.075 44.4457 31.1628 43.7043 30.4175C42.959 29.6761 42.0468 29.3054 40.9676 29.3054C39.8882 29.3054 38.9778 29.6761 38.2364 30.4175C37.2942 30.0778 36.3604 29.9998 35.4351 30.1837C34.5099 30.3673 33.7268 30.7797 33.086 31.4208C32.4449 32.0616 32.0325 32.8447 31.8489 33.77C31.665 34.6953 31.7429 35.629 32.0826 36.5712C31.3413 37.3165 30.9706 38.2287 30.9706 39.3079C30.9706 40.3873 31.3413 41.2978 32.0826 42.0391ZM29.8326 54.8341V48.1162C28.2493 46.6718 27.0201 45.0164 26.1451 43.15C25.2701 41.2833 24.8326 39.3408 24.8326 37.3225C24.8326 33.3905 26.21 30.0485 28.9647 27.2962C31.7192 24.5437 35.064 23.1675 38.9993 23.1675C42.2365 23.1675 45.1313 24.135 47.6835 26.07C50.236 28.0047 51.8936 30.5148 52.6564 33.6004L54.6656 41.5562C54.7719 41.9673 54.6969 42.3386 54.4406 42.67C54.1842 43.0016 53.8369 43.1675 53.3989 43.1675H49.8326V48.8937C49.8326 49.6051 49.576 50.2175 49.0626 50.7308C48.5493 51.2441 47.9369 51.5008 47.2256 51.5008H43.166V54.8341H41.0718V49.4066H47.2256C47.3753 49.4066 47.4982 49.3586 47.5943 49.2625C47.6904 49.1664 47.7385 49.0435 47.7385 48.8937V41.0733H52.3626L50.6381 34.1025C49.9878 31.4814 48.5743 29.3526 46.3976 27.7162C44.2213 26.0798 41.7551 25.2616 38.9993 25.2616C35.6518 25.2616 32.8028 26.4246 30.4522 28.7504C28.1019 31.0762 26.9268 33.9108 26.9268 37.2541C26.9268 38.9855 27.2804 40.6261 27.9876 42.1758C28.6949 43.7258 29.6938 45.1011 30.9843 46.3016L31.9268 47.1866V54.8341H29.8326Z" fill="#1E1E1E"/>
</g>
</svg>
