<svg width="40" height="40" viewBox="0 0 40 40" fill="none" xmlns="http://www.w3.org/2000/svg">
<mask id="mask0_264_439" style="mask-type:alpha" maskUnits="userSpaceOnUse" x="0" y="0" width="40" height="40">
<rect width="40" height="40" fill="#D9D9D9"/>
</mask>
<g mask="url(#mask0_264_439)">
<path d="M16.6714 29.6799C15.952 29.6799 15.3377 29.4239 14.8285 28.912C14.3193 28.4 14.0648 27.787 14.0648 27.0728V24.0687C12.5192 23.0484 11.3164 21.7314 10.4564 20.1178C9.59615 18.5045 9.16602 16.7834 9.16602 14.9545C9.16602 11.9567 10.2207 9.40935 12.3302 7.31241C14.4393 5.21546 16.9987 4.16699 20.0081 4.16699C23.0173 4.16699 25.5737 5.2188 27.6773 7.32241C29.7809 9.42602 30.8327 11.9853 30.8327 15.0003C30.8327 16.8437 30.4009 18.5623 29.5373 20.1562C28.6737 21.7503 27.4762 23.0545 25.9448 24.0687V27.0728C25.9448 27.787 25.6888 28.4 25.1768 28.912C24.6649 29.4239 24.052 29.6799 23.3381 29.6799H16.6714ZM16.7677 27.5857H23.231C23.3807 27.5857 23.5037 27.5377 23.5998 27.4416C23.6959 27.3455 23.7439 27.2225 23.7439 27.0728V23.0503L24.9973 22.1778C26.1748 21.3562 27.0927 20.312 27.751 19.0453C28.4093 17.7787 28.7385 16.4291 28.7385 14.9966C28.7385 12.5696 27.8899 10.507 26.1927 8.80866C24.4952 7.11033 22.4312 6.26116 20.0006 6.26116C17.5703 6.26116 15.506 7.11588 13.8077 8.82533C12.1093 10.535 11.2602 12.598 11.2602 15.0141C11.2602 16.4494 11.5893 17.798 12.2477 19.0599C12.906 20.3219 13.8239 21.3612 15.0014 22.1778L16.2548 23.0399V27.0728C16.2548 27.2225 16.3028 27.3455 16.3989 27.4416C16.495 27.5377 16.618 27.5857 16.7677 27.5857ZM16.7481 35.8337C16.4512 35.8337 16.2024 35.7334 16.0018 35.5328C15.8016 35.3326 15.7014 35.0838 15.7014 34.7866V33.7395H24.3143V34.7916C24.3143 35.0902 24.2142 35.3385 24.0139 35.5366C23.8134 35.7346 23.5646 35.8337 23.2677 35.8337H16.7481Z" fill="black"/>
</g>
</svg>
