<svg width="40" height="40" viewBox="0 0 40 40" fill="none" xmlns="http://www.w3.org/2000/svg">
<mask id="mask0_264_383" style="mask-type:alpha" maskUnits="userSpaceOnUse" x="0" y="0" width="40" height="40">
<rect width="40" height="40" fill="#D9D9D9"/>
</mask>
<g mask="url(#mask0_264_383)">
<path d="M20.0007 36.6665C17.7137 36.6665 15.5563 36.229 13.5286 35.354C11.5008 34.479 9.73218 33.2891 8.22273 31.7844C6.71357 30.28 5.52148 28.5139 4.64648 26.4861C3.77148 24.4583 3.33398 22.3055 3.33398 20.0278C3.33398 15.648 4.80162 11.8794 7.7369 8.72192C10.6719 5.5647 14.3061 3.80553 18.6394 3.44442V7.94442C15.5561 8.27775 12.9844 9.59025 10.9244 11.8819C8.86412 14.1736 7.83398 16.8889 7.83398 20.0278C7.83398 23.398 9.01912 26.2637 11.3894 28.6248C13.76 30.9859 16.6304 32.1665 20.0007 32.1665C21.9451 32.1665 23.7761 31.7359 25.4936 30.8748C27.2113 30.0137 28.6675 28.8147 29.8619 27.2778L33.7507 29.5278C32.1765 31.7591 30.1858 33.5068 27.7786 34.7707C25.3711 36.0346 22.7784 36.6665 20.0007 36.6665ZM35.1394 26.9998L31.2507 24.8053C31.5562 24.0091 31.7854 23.2105 31.9382 22.4094C32.0909 21.6086 32.1673 20.8054 32.1673 19.9998C32.1673 16.8609 31.1419 14.1411 29.0911 11.8403C27.04 9.53914 24.482 8.23123 21.4173 7.9165V3.4165C25.732 3.759 29.3525 5.50442 32.2786 8.65275C35.2044 11.8008 36.6673 15.5461 36.6673 19.8886C36.6673 21.1294 36.5423 22.3425 36.2923 23.5278C36.0423 24.7128 35.658 25.8701 35.1394 26.9998Z" fill="black"/>
</g>
</svg>
