<svg width="78" height="78" viewBox="0 0 78 78" fill="none" xmlns="http://www.w3.org/2000/svg">
<circle cx="39" cy="39" r="39" fill="#D1FAE5"/>
<mask id="mask0_515_86" style="mask-type:alpha" maskUnits="userSpaceOnUse" x="19" y="19" width="40" height="40">
<rect x="19" y="19" width="40" height="40" fill="#D9D9D9"/>
</mask>
<g mask="url(#mask0_515_86)">
<path d="M31.5962 54.8332C30.1882 54.8332 28.9868 54.3358 27.9921 53.3411C26.9974 52.3464 26.5 51.145 26.5 49.7369V28.5832C26.5 27.079 27.0267 25.8001 28.08 24.7465C29.1336 23.6932 30.4125 23.1665 31.9167 23.1665H51.5V47.1407C50.7842 47.1407 50.1725 47.3944 49.665 47.9019C49.1575 48.4094 48.9037 49.0211 48.9037 49.7369C48.9037 50.4528 49.1575 51.0644 49.665 51.5719C50.1725 52.0794 50.7842 52.3332 51.5 52.3332V54.8332H31.5962ZM29 45.4069C29.3783 45.1483 29.7838 44.9559 30.2163 44.8298C30.649 44.704 31.109 44.6411 31.5962 44.6411H32.6537V25.6665H31.9167C31.1153 25.6665 30.4289 25.9523 29.8575 26.524C29.2858 27.0954 29 27.7818 29 28.5832V45.4069ZM35.1538 44.6411H49V25.6665H35.1538V44.6411ZM31.5962 52.3332H47.17C46.9283 51.9548 46.7403 51.5537 46.6058 51.1298C46.4711 50.7057 46.4037 50.2414 46.4037 49.7369C46.4037 49.2605 46.4668 48.8033 46.5929 48.3653C46.719 47.9272 46.9114 47.519 47.17 47.1407H31.5962C30.8526 47.1407 30.234 47.3944 29.7404 47.9019C29.2468 48.4094 29 49.0211 29 49.7369C29 50.4805 29.2468 51.0991 29.7404 51.5928C30.234 52.0864 30.8526 52.3332 31.5962 52.3332Z" fill="#1C1B1F"/>
</g>
</svg>
