<svg width="51" height="51" viewBox="0 0 51 51" fill="none" xmlns="http://www.w3.org/2000/svg">
<circle cx="25.5" cy="25.5" r="25.5" fill="#86E7D4"/>
<mask id="mask0_333_31" style="mask-type:alpha" maskUnits="userSpaceOnUse" x="8" y="8" width="35" height="35">
<rect x="8" y="8" width="35" height="35" fill="#D9D9D9"/>
</mask>
<g mask="url(#mask0_333_31)">
<path d="M18.7271 39.3542V36.4095L22.9898 33.417V27.6343L11.6458 32.1887V28.5709L22.9898 20.6008V14.156C22.9898 13.466 23.2357 12.8751 23.7277 12.3834C24.2194 11.8917 24.8101 11.6459 25.4999 11.6459C26.1897 11.6459 26.7805 11.8917 27.2722 12.3834C27.7641 12.8751 28.0101 13.466 28.0101 14.156V20.6008L39.3541 28.5709V32.1887L28.0101 27.6343V33.417L32.2586 36.4095V39.3542L25.4999 37.3067L18.7271 39.3542Z" fill="#1C1B1F"/>
</g>
</svg>
