<svg width="51" height="51" viewBox="0 0 51 51" fill="none" xmlns="http://www.w3.org/2000/svg">
<circle cx="25.5" cy="25.5" r="25.5" fill="#86E7D4"/>
<mask id="mask0_333_20" style="mask-type:alpha" maskUnits="userSpaceOnUse" x="8" y="8" width="35" height="35">
<rect x="8" y="8" width="35" height="35" fill="#D9D9D9"/>
</mask>
<g mask="url(#mask0_333_20)">
<path d="M30.5473 40.8125C28.151 40.8125 26.0407 40.0965 24.2163 38.6644C22.3917 37.2321 21.1909 35.411 20.6139 33.2011C21.3391 33.2047 22.0493 33.1491 22.7445 33.0341C23.4399 32.9192 24.1063 32.7387 24.7439 32.4927H32.7337C32.7723 32.141 32.8018 31.7932 32.8219 31.4493C32.8423 31.1053 32.8526 30.757 32.8526 30.4044C32.8526 30.1159 32.8466 29.814 32.8347 29.4987C32.8228 29.1837 32.7951 28.8717 32.7516 28.5625H30.2881C30.5326 28.2857 30.7577 27.994 30.9633 27.6875C31.1689 27.3808 31.3642 27.0616 31.5492 26.7301H38.0584C37.5424 25.7224 36.8525 24.8485 35.9887 24.1084C35.1249 23.3683 34.1424 22.8288 33.0414 22.49C33.0893 22.1976 33.1291 21.8922 33.161 21.5738C33.1928 21.2554 33.2062 20.9404 33.2011 20.6288C35.411 21.2121 37.2321 22.412 38.6644 24.2283C40.0965 26.0447 40.8125 28.146 40.8125 30.5323C40.8125 33.3878 39.8156 35.815 37.8218 37.8142C35.8283 39.8131 33.4034 40.8125 30.5473 40.8125ZM28.211 38.5539C27.8671 37.8641 27.5763 37.1707 27.3386 36.4736C27.1011 35.7768 26.9148 35.0605 26.7797 34.3247H23.0496C23.5652 35.358 24.2694 36.245 25.1624 36.9858C26.0556 37.7264 27.0718 38.2491 28.211 38.5539ZM30.5473 38.9101C31.0234 38.1933 31.4149 37.4508 31.7216 36.6825C32.0286 35.914 32.2663 35.128 32.4347 34.3247H28.6449C28.7669 34.9013 29.0009 35.6304 29.3467 36.5122C29.6926 37.394 30.0928 38.1933 30.5473 38.9101ZM32.8832 38.5539C34.0224 38.2491 35.0409 37.7264 35.9388 36.9858C36.8366 36.245 37.5432 35.358 38.0584 34.3247H34.3116C34.1682 35.0658 33.9803 35.7834 33.748 36.4776C33.5156 37.172 33.2273 37.8641 32.8832 38.5539ZM34.5836 32.4927H38.7541C38.8275 32.186 38.8835 31.8701 38.9221 31.5452C38.9608 31.2202 38.9801 30.8806 38.9801 30.5265C38.9801 30.1724 38.9608 29.837 38.9221 29.5203C38.8835 29.2036 38.8236 28.8843 38.7424 28.5625H34.5836C34.6273 28.8714 34.6576 29.1791 34.6744 29.4856C34.6911 29.7924 34.6995 30.1042 34.6995 30.4211C34.6995 30.7711 34.6911 31.117 34.6744 31.4588C34.6576 31.8005 34.6273 32.1451 34.5836 32.4927ZM20.4746 30.7332C17.6158 30.7332 15.1865 29.7321 13.1869 27.7298C11.1873 25.7275 10.1875 23.2991 10.1875 20.4447C10.1875 17.5902 11.1874 15.1671 13.1873 13.1753C15.1872 11.1834 17.6155 10.1875 20.4724 10.1875C23.3293 10.1875 25.7536 11.1828 27.7455 13.1734C29.7373 15.1638 30.7332 17.5885 30.7332 20.4476C30.7332 23.2991 29.7382 25.7263 27.748 27.7291C25.7579 29.7318 23.3334 30.7332 20.4746 30.7332ZM20.4698 28.9008C22.8 28.9008 24.7877 28.0751 26.433 26.4235C28.0782 24.7719 28.9008 22.7811 28.9008 20.4509C28.9008 18.1207 28.0765 16.133 26.4279 14.4878C24.779 12.8425 22.7914 12.0199 20.4651 12.0199C18.1347 12.0199 16.1445 12.8442 14.4947 14.4929C12.8448 16.1418 12.0199 18.1293 12.0199 20.4556C12.0199 22.786 12.8457 24.7762 14.4972 26.426C16.1488 28.0759 18.1397 28.9008 20.4698 28.9008ZM16.8736 19.3816C17.1701 19.3816 17.4238 19.2762 17.6345 19.0655C17.845 18.855 17.9502 18.5965 17.9502 18.29C17.9502 17.9838 17.8439 17.7277 17.6312 17.5218C17.4185 17.3157 17.1611 17.2127 16.859 17.2127C16.5627 17.2127 16.3091 17.3166 16.0981 17.5244C15.8872 17.7322 15.7817 17.9896 15.7817 18.2966C15.7817 18.598 15.887 18.8541 16.0978 19.0651C16.3085 19.2761 16.5671 19.3816 16.8736 19.3816ZM20.4749 25.6524C21.5014 25.6524 22.4298 25.3859 23.2604 24.8529C24.0909 24.3198 24.7268 23.6301 25.1682 22.7835L15.7674 22.7693C16.2088 23.6253 16.8471 24.3198 17.6822 24.8529C18.5174 25.3859 19.4483 25.6524 20.4749 25.6524ZM24.081 19.3816C24.3683 19.3816 24.6188 19.2762 24.8324 19.0655C25.0463 18.855 25.1533 18.5965 25.1533 18.29C25.1533 17.9838 25.0454 17.7277 24.8295 17.5218C24.6137 17.3157 24.3578 17.2127 24.0617 17.2127C23.7654 17.2127 23.5118 17.3166 23.3008 17.5244C23.0899 17.7322 22.9844 17.9896 22.9844 18.2966C22.9844 18.598 23.0897 18.8541 23.3005 19.0651C23.5112 19.2761 23.7714 19.3816 24.081 19.3816Z" fill="#1C1B1F"/>
</g>
</svg>
