<svg width="51" height="51" viewBox="0 0 51 51" fill="none" xmlns="http://www.w3.org/2000/svg">
<circle cx="25.5" cy="25.5" r="25.5" fill="#86E7D4"/>
<mask id="mask0_333_37" style="mask-type:alpha" maskUnits="userSpaceOnUse" x="8" y="8" width="35" height="35">
<rect x="8" y="8" width="35" height="35" fill="#D9D9D9"/>
</mask>
<g mask="url(#mask0_333_37)">
<path d="M16.3948 36.0635H34.605V32.2306H16.3948V36.0635ZM16.3948 30.3986H34.605V26.5657H16.3948V30.3986ZM16.3948 24.7337H34.605V22.5367L32.4671 20.9008H18.5568L16.3948 22.5367V24.7337ZM20.9605 19.0684H30.0685L25.4999 15.5936L20.9605 19.0684ZM14.5624 37.8959V23.9287L11.6224 26.1807L10.5239 24.7224L14.5624 21.6354V17.4511H16.3948V20.2201L25.4999 13.2865L40.4759 24.7373L39.3774 26.1731L36.4374 23.9287V37.8959H14.5624ZM14.5624 15.8528C14.5624 14.8519 14.9014 14.0002 15.5792 13.2978C16.2569 12.5954 17.1301 12.2441 18.1988 12.2441C18.7704 12.2441 19.214 12.0699 19.5295 11.7213C19.8452 11.3725 20.0031 10.9547 20.0031 10.4679H21.8355C21.8355 11.4588 21.5007 12.3081 20.8311 13.0156C20.1612 13.7229 19.2838 14.0765 18.1988 14.0765C17.6373 14.0765 17.1963 14.2484 16.8757 14.5921C16.5551 14.9357 16.3948 15.356 16.3948 15.8528H14.5624Z" fill="#1C1B1F"/>
</g>
</svg>
