<svg width="31" height="31" viewBox="0 0 31 31" fill="none" xmlns="http://www.w3.org/2000/svg">
<mask id="mask0_222_1472" style="mask-type:alpha" maskUnits="userSpaceOnUse" x="0" y="0" width="31" height="31">
<rect width="30.6667" height="30.6667" fill="#D9D9D9"/>
</mask>
<g mask="url(#mask0_222_1472)">
<path d="M3.04712 13.6869L8.96898 3.18225L14.8908 13.6869H3.04712ZM8.99422 26.526C7.66788 26.526 6.53567 26.0583 5.59756 25.123C4.65946 24.1876 4.19041 23.0557 4.19041 21.7273C4.19041 20.379 4.65946 19.2404 5.59756 18.3115C6.53567 17.3827 7.66788 16.9184 8.99422 16.9184C10.3261 16.9184 11.4598 17.386 12.3953 18.3214C13.3307 19.2567 13.7983 20.3903 13.7983 21.7222C13.7983 23.054 13.3307 24.1876 12.3953 25.123C11.4598 26.0583 10.3261 26.526 8.99422 26.526ZM8.99422 24.9208C9.88504 24.9208 10.6408 24.6103 11.2616 23.9893C11.8824 23.3685 12.1928 22.6128 12.1928 21.7222C12.1928 20.8316 11.8824 20.0759 11.2616 19.4551C10.6408 18.8341 9.88504 18.5236 8.99422 18.5236C8.10361 18.5236 7.34791 18.8341 6.72712 19.4551C6.10633 20.0759 5.79594 20.8316 5.79594 21.7222C5.79594 22.6128 6.10633 23.3685 6.72712 23.9893C7.34791 24.6103 8.10361 24.9208 8.99422 24.9208ZM5.79498 12.0817H12.1551L8.96898 6.47796L5.79498 12.0817ZM16.943 26.526V16.9184H26.5506V26.526H16.943ZM18.5482 24.9208H24.9454V18.5236H18.5482V24.9208ZM21.7468 13.6869C20.7458 12.8612 19.8764 12.138 19.1385 11.5172C18.4004 10.8964 17.7905 10.3259 17.309 9.80561C16.8273 9.28556 16.4677 8.78307 16.2303 8.29815C15.9926 7.81324 15.8738 7.30053 15.8738 6.76003C15.8738 5.89987 16.1663 5.1807 16.7513 4.6025C17.3361 4.02409 18.0716 3.73489 18.9577 3.73489C19.4856 3.73489 19.9891 3.86171 20.468 4.11535C20.947 4.36899 21.3732 4.74263 21.7468 5.23628C22.1203 4.7454 22.5492 4.3725 23.0335 4.11759C23.5178 3.86246 24.0226 3.73489 24.548 3.73489C25.4228 3.73489 26.1535 4.03059 26.74 4.62199C27.3263 5.21339 27.6194 5.93831 27.6194 6.79677C27.6194 7.32917 27.5007 7.83581 27.2632 8.31668C27.0258 8.79734 26.6662 9.29567 26.1845 9.81168C25.703 10.3279 25.0932 10.8964 24.355 11.5172C23.6171 12.138 22.7477 12.8612 21.7468 13.6869ZM21.7468 11.5868C23.3908 10.2707 24.5131 9.27555 25.1137 8.60131C25.714 7.92685 26.0142 7.33439 26.0142 6.82392C26.0142 6.38841 25.882 6.03233 25.6175 5.7557C25.353 5.47884 25.0055 5.34042 24.5751 5.34042C24.3034 5.34042 24.0361 5.41953 23.7733 5.57776C23.5107 5.736 23.162 6.0203 22.7271 6.43068L21.7468 7.37177L20.7664 6.43068C20.3336 6.00561 19.9854 5.71758 19.7218 5.56658C19.4582 5.41581 19.1904 5.34042 18.9184 5.34042C18.4797 5.34042 18.1301 5.47267 17.8697 5.73717C17.6094 6.00167 17.4793 6.35572 17.4793 6.79932C17.4793 7.32619 17.7795 7.92685 18.3798 8.60131C18.9802 9.27555 20.1025 10.2707 21.7468 11.5868Z" fill="#1C1B1F"/>
</g>
</svg>
