<svg width="78" height="78" viewBox="0 0 78 78" fill="none" xmlns="http://www.w3.org/2000/svg">
<circle cx="39" cy="39" r="39" fill="#DBE9FE"/>
<mask id="mask0_515_81" style="mask-type:alpha" maskUnits="userSpaceOnUse" x="19" y="19" width="40" height="40">
<rect x="19" y="19" width="40" height="40" fill="#D9D9D9"/>
</mask>
<g mask="url(#mask0_515_81)">
<path d="M51.5712 53.2954L41.1032 42.827C40.2699 43.5151 39.3116 44.0535 38.2282 44.4424C37.1449 44.8313 36.0242 45.0258 34.8662 45.0258C32.0175 45.0258 29.6067 44.0395 27.6337 42.067C25.6606 40.0945 24.6741 37.6842 24.6741 34.8362C24.6741 31.9884 25.6603 29.5773 27.6328 27.6029C29.6053 25.6287 32.0156 24.6416 34.8637 24.6416C37.7114 24.6416 40.1225 25.6281 42.097 27.6012C44.0712 29.5742 45.0582 31.9851 45.0582 34.8337C45.0582 36.024 44.8585 37.1608 44.4591 38.2441C44.0594 39.3274 43.5262 40.2697 42.8595 41.0708L53.3274 51.5387L51.5712 53.2954ZM34.8662 42.5262C37.0137 42.5262 38.8325 41.7809 40.3228 40.2904C41.8134 38.8001 42.5587 36.9812 42.5587 34.8337C42.5587 32.6862 41.8134 30.8673 40.3228 29.377C38.8325 27.8865 37.0137 27.1412 34.8662 27.1412C32.7187 27.1412 30.8998 27.8865 29.4095 29.377C27.9189 30.8673 27.1737 32.6862 27.1737 34.8337C27.1737 36.9812 27.9189 38.8001 29.4095 40.2904C30.8998 41.7809 32.7187 42.5262 34.8662 42.5262Z" fill="#1E1E1E"/>
</g>
</svg>
