<svg width="51" height="51" viewBox="0 0 51 51" fill="none" xmlns="http://www.w3.org/2000/svg">
<circle cx="25.5" cy="25.5" r="25.5" fill="#86E7D4"/>
<mask id="mask0_333_49" style="mask-type:alpha" maskUnits="userSpaceOnUse" x="8" y="8" width="35" height="35">
<rect x="8" y="8" width="35" height="35" fill="#D9D9D9"/>
</mask>
<g mask="url(#mask0_333_49)">
<path d="M25.4999 13.3008L40.504 24.5467L39.1747 26.2909L36.4374 24.2379V37.8959H14.5624V24.2379L11.8251 26.2909L10.4958 24.5467L25.4999 13.3008ZM19.5601 25.8782C19.5601 27.0096 20.1687 28.2156 21.386 29.4963C22.6029 30.7772 23.9743 32.1094 25.4999 33.4929C27.0443 32.1094 28.425 30.7777 29.6419 29.4978C30.8592 28.2176 31.4678 27.0123 31.4678 25.8818C31.4678 24.9431 31.1471 24.1634 30.5056 23.5427C29.864 22.9219 29.0941 22.6115 28.196 22.6115C27.6401 22.6115 27.1336 22.7251 26.6764 22.9524C26.2192 23.1794 25.8271 23.4716 25.4999 23.8289C25.1915 23.4716 24.7988 23.1794 24.3219 22.9524C23.8453 22.7251 23.35 22.6115 22.8359 22.6115C21.9368 22.6115 21.1661 22.921 20.5237 23.5401C19.8813 24.1594 19.5601 24.9388 19.5601 25.8782ZM34.2499 35.7084V22.5834L25.4999 16.0209L16.7499 22.5834V35.7084H34.2499Z" fill="#1C1B1F"/>
</g>
</svg>
