<svg width="80" height="80" viewBox="0 0 80 80" fill="none" xmlns="http://www.w3.org/2000/svg">
<circle cx="40" cy="40" r="40" fill="#0F766E"/>
<mask id="mask0_606_3968" style="mask-type:alpha" maskUnits="userSpaceOnUse" x="11" y="11" width="58" height="58">
<rect x="11" y="11" width="58" height="58" fill="#D9D9D9"/>
</mask>
<g mask="url(#mask0_606_3968)">
<path d="M49.6666 37.3043C50.2583 37.3043 50.7626 37.0961 51.1795 36.6796C51.5959 36.2627 51.8042 35.7584 51.8042 35.1667C51.8042 34.5751 51.5959 34.0708 51.1795 33.6539C50.7626 33.2374 50.2583 33.0292 49.6666 33.0292C49.0749 33.0292 48.5707 33.2374 48.1538 33.6539C47.7373 34.0708 47.5291 34.5751 47.5291 35.1667C47.5291 35.7584 47.7373 36.2627 48.1538 36.6796C48.5707 37.0961 49.0749 37.3043 49.6666 37.3043ZM30.3333 32.1459H42.4166V28.5209H30.3333V32.1459ZM22.7812 60.5417C21.5048 56.1358 20.2292 51.7517 18.9544 47.3896C17.6792 43.0272 17.0416 38.5501 17.0416 33.9584C17.0416 30.5936 18.2143 27.7385 20.5597 25.3931C22.9051 23.0478 25.7602 21.8751 29.125 21.8751H41.8125C42.9185 20.4219 44.2454 19.253 45.7933 18.3685C47.3408 17.484 49.0347 17.0417 50.875 17.0417C51.5412 17.0417 52.1105 17.278 52.5829 17.7504C53.0554 18.2229 53.2916 18.7922 53.2916 19.4584C53.2916 19.6227 53.2691 19.7869 53.224 19.9508C53.1793 20.1151 53.1321 20.267 53.0826 20.4064C52.8594 20.9888 52.6695 21.5853 52.5129 22.1959C52.3566 22.8061 52.2227 23.4226 52.1111 24.0452L58.3993 30.3334H62.9583V45.098L56.3632 47.264L52.3854 60.5417H41.2083V55.7084H33.9583V60.5417H22.7812ZM25.5 56.9167H30.3333V52.0834H44.8333V56.9167H49.6666L53.4125 44.4709L59.3333 42.4772V33.9584H56.9166L48.4583 25.5001C48.4583 24.6945 48.5086 23.9192 48.6093 23.174C48.71 22.4289 48.8766 21.6813 49.109 20.9314C47.9409 21.2536 46.9215 21.8153 46.0507 22.6164C45.1803 23.4171 44.5127 24.3783 44.0479 25.5001H29.125C26.7888 25.5001 24.7951 26.3258 23.1437 27.9772C21.4923 29.6286 20.6666 31.6223 20.6666 33.9584C20.6666 37.9056 21.2104 41.7622 22.2979 45.5282C23.3854 49.2942 24.4527 53.0904 25.5 56.9167Z" fill="white"/>
</g>
</svg>
