<svg width="29" height="29" viewBox="0 0 29 29" fill="none" xmlns="http://www.w3.org/2000/svg">
<mask id="mask0_264_442" style="mask-type:alpha" maskUnits="userSpaceOnUse" x="0" y="0" width="29" height="29">
<rect width="28.4282" height="28.4282" fill="#D9D9D9"/>
</mask>
<g mask="url(#mask0_264_442)">
<path d="M10.5716 24.2823H5.63482C5.23189 24.2823 4.88315 24.1349 4.5886 23.8402C4.29386 23.5456 4.14648 23.1969 4.14648 22.7939V17.8572C4.91997 17.7129 5.5755 17.3569 6.11307 16.7894C6.65064 16.222 6.91942 15.5462 6.91942 14.7621C6.91942 13.9781 6.65064 13.3037 6.11307 12.7386C5.5755 12.1736 4.91997 11.8165 4.14648 11.6673V6.73023C4.14648 6.3275 4.29386 5.97876 4.5886 5.68401C4.88315 5.38946 5.23189 5.24219 5.63482 5.24219H10.6172C10.8278 4.51016 11.2078 3.90902 11.7573 3.43877C12.3069 2.96852 12.9527 2.7334 13.6948 2.7334C14.4369 2.7334 15.0827 2.96852 15.6321 3.43877C16.1815 3.90902 16.5615 4.51016 16.7722 5.24219H21.6985C22.1013 5.24219 22.45 5.38946 22.7448 5.68401C23.0393 5.97876 23.1866 6.3275 23.1866 6.73023V11.6566C23.9186 11.8672 24.5124 12.2567 24.9681 12.8248C25.4235 13.393 25.6512 14.0481 25.6512 14.7902C25.6512 15.5323 25.4235 16.1708 24.9681 16.7056C24.5124 17.2404 23.9186 17.6131 23.1866 17.8237V22.7939C23.1866 23.1969 23.0393 23.5456 22.7448 23.8402C22.45 24.1349 22.1013 24.2823 21.6985 24.2823H16.7615C16.6046 23.4531 16.2357 22.7837 15.6549 22.2739C15.0741 21.7642 14.4107 21.5093 13.6649 21.5093C12.9189 21.5093 12.2547 21.7642 11.6726 22.2739C11.0906 22.7837 10.7236 23.4531 10.5716 24.2823ZM5.63482 22.7939H9.49958C9.91317 21.7999 10.5186 21.0892 11.316 20.6618C12.1136 20.2346 12.8968 20.021 13.6658 20.021C14.4347 20.021 15.2182 20.2346 16.0162 20.6618C16.8141 21.0892 17.4199 21.7999 17.8335 22.7939H21.6985V16.416H22.6476C23.1279 16.3704 23.5006 16.1904 23.7655 15.8761C24.0306 15.5618 24.1632 15.2011 24.1632 14.7941C24.1632 14.387 24.0306 14.025 23.7655 13.7082C23.5006 13.3913 23.1279 13.2101 22.6476 13.1645H21.6985V6.73023H15.3203V5.73731C15.2748 5.2568 15.0949 4.88407 14.7804 4.61914C14.4661 4.3542 14.1043 4.22173 13.6948 4.22173C13.2852 4.22173 12.9232 4.3542 12.6089 4.61914C12.2944 4.88407 12.1145 5.2568 12.0691 5.73731V6.73023H5.63482V10.5831C6.48214 10.9314 7.15612 11.4862 7.65678 12.2477C8.15743 13.0091 8.40776 13.8487 8.40776 14.7665C8.40776 15.6735 8.15694 16.5085 7.6553 17.2718C7.15366 18.035 6.48016 18.5915 5.63482 18.9413V22.7939Z" fill="black"/>
</g>
</svg>
