<svg width="51" height="51" viewBox="0 0 51 51" fill="none" xmlns="http://www.w3.org/2000/svg">
<circle cx="25.5" cy="25.5" r="25.5" fill="#86E7D4"/>
<mask id="mask0_333_25" style="mask-type:alpha" maskUnits="userSpaceOnUse" x="8" y="8" width="35" height="35">
<rect x="8" y="8" width="35" height="35" fill="#D9D9D9"/>
</mask>
<g mask="url(#mask0_333_25)">
<path d="M14.1137 28.6466H15.502L16.3264 26.3246H20.3145L21.1615 28.6466H22.5414L19.0888 19.4646H17.5521L14.1137 28.6466ZM16.7726 25.1156L18.2842 20.9342H18.3571L19.8686 25.1156H16.7726ZM28.3324 22.0352V20.4723C29.1253 20.104 29.955 19.8278 30.8215 19.6436C31.6882 19.4596 32.588 19.3676 33.5208 19.3676C34.1061 19.3676 34.6745 19.4091 35.226 19.4923C35.7775 19.5754 36.3309 19.6853 36.8863 19.8219V21.2951C36.3404 21.1043 35.7977 20.9659 35.2581 20.8799C34.7187 20.7938 34.1397 20.7508 33.5208 20.7508C32.588 20.7508 31.6844 20.8616 30.8102 21.0833C29.9361 21.3047 29.1102 21.622 28.3324 22.0352ZM28.3324 30.028V28.422C29.1066 28.0589 29.9339 27.7864 30.8145 27.6046C31.6951 27.4231 32.5972 27.3323 33.5208 27.3323C34.1061 27.3323 34.6745 27.3738 35.226 27.457C35.7775 27.5401 36.3309 27.6499 36.8863 27.7865V29.2598C36.3404 29.069 35.7977 28.9306 35.2581 28.8446C34.7187 28.7585 34.1397 28.7155 33.5208 28.7155C32.588 28.7155 31.6844 28.8273 30.8102 29.0509C29.9361 29.2743 29.1102 29.6 28.3324 30.028ZM28.3324 26.0457V24.4546C29.1253 24.0864 29.955 23.8102 30.8215 23.6259C31.6882 23.4419 32.588 23.3499 33.5208 23.3499C34.1061 23.3499 34.6745 23.3915 35.226 23.4746C35.7775 23.5577 36.3309 23.6676 36.8863 23.8042V25.2775C36.3404 25.0867 35.7977 24.9483 35.2581 24.8622C34.7187 24.7762 34.1397 24.7332 33.5208 24.7332C32.588 24.7332 31.6844 24.8486 30.8102 25.0795C29.9361 25.3104 29.1102 25.6325 28.3324 26.0457ZM17.2622 31.7164C18.5485 31.7164 19.7999 31.8665 21.0164 32.1666C22.2331 32.4668 23.4354 32.9294 24.6232 33.5543V18.6308C23.5525 17.8909 22.3805 17.3286 21.1071 16.9438C19.834 16.5591 18.5524 16.3667 17.2622 16.3667C16.3612 16.3667 15.5257 16.4493 14.7557 16.6146C13.9857 16.7801 13.1766 17.0191 12.3283 17.3314C12.216 17.3688 12.1366 17.4225 12.0899 17.4925C12.0432 17.5628 12.0199 17.6399 12.0199 17.724V32.1969C12.0199 32.3216 12.0666 32.4143 12.1599 32.4751C12.2535 32.5358 12.3564 32.5459 12.4687 32.5053C13.1143 32.2436 13.8493 32.0467 14.6737 31.9147C15.4981 31.7825 16.361 31.7164 17.2622 31.7164ZM26.4552 33.5543C27.6469 32.9294 28.8345 32.4668 30.0179 32.1666C31.2016 31.8665 32.4415 31.7164 33.7378 31.7164C34.639 31.7164 35.5084 31.7799 36.346 31.9071C37.1836 32.0342 37.912 32.2025 38.5313 32.412C38.6436 32.4587 38.7465 32.4516 38.8401 32.3909C38.9334 32.3301 38.9801 32.2343 38.9801 32.1036V17.724C38.9801 17.6399 38.9568 17.5651 38.9101 17.4995C38.8634 17.4341 38.784 17.3781 38.6717 17.3314C37.8596 16.9892 37.0611 16.7428 36.276 16.5924C35.4907 16.4419 34.6446 16.3667 33.7378 16.3667C32.4415 16.3667 31.1699 16.5591 29.9228 16.9438C28.6756 17.3286 27.5198 17.8909 26.4552 18.6308V33.5543ZM25.5346 36.2689C24.3194 35.4015 23.0081 34.7337 21.6008 34.2656C20.1935 33.7977 18.7473 33.5637 17.2622 33.5637C16.4395 33.5637 15.6315 33.6507 14.8381 33.8248C14.0448 33.999 13.26 34.2368 12.4836 34.5379C11.936 34.7834 11.4164 34.7355 10.9247 34.3943C10.4332 34.0532 10.1875 33.5756 10.1875 32.9614V17.4677C10.1875 17.1075 10.2774 16.7743 10.4573 16.4681C10.6372 16.1618 10.8975 15.9342 11.2382 15.7852C12.1793 15.3569 13.157 15.0414 14.1713 14.8387C15.1853 14.6358 16.2156 14.5343 17.2622 14.5343C18.7432 14.5343 20.1836 14.7398 21.5836 15.1508C22.9836 15.5618 24.3022 16.1771 25.5394 16.9967C26.7602 16.1771 28.0656 15.5618 29.4554 15.1508C30.8452 14.7398 32.2726 14.5343 33.7378 14.5343C34.781 14.5343 35.808 14.6358 36.8189 14.8387C37.8297 15.0414 38.8057 15.3569 39.7468 15.7852C40.0876 15.933 40.3505 16.1602 40.5354 16.467C40.7201 16.7739 40.8125 17.1075 40.8125 17.4677V32.9614C40.8125 33.5936 40.5504 34.0785 40.0261 34.4161C39.5021 34.754 38.9659 34.7852 38.4176 34.5098C37.6665 34.2082 36.8992 33.9751 36.1156 33.8106C35.3317 33.646 34.5391 33.5637 33.7378 33.5637C32.251 33.5637 30.8159 33.8002 29.4324 34.2732C28.0492 34.7462 26.7499 35.4114 25.5346 36.2689Z" fill="#1C1B1F"/>
</g>
</svg>
