<svg width="84" height="84" viewBox="0 0 84 84" fill="none" xmlns="http://www.w3.org/2000/svg">
<circle cx="42" cy="42" r="42" fill="#5EEAD4"/>
<mask id="mask0_709_25" style="mask-type:alpha" maskUnits="userSpaceOnUse" x="21" y="21" width="42" height="42">
<rect x="21" y="21" width="42" height="42" fill="#D9D9D9"/>
</mask>
<g mask="url(#mask0_709_25)">
<path d="M42.0007 50.2798C42.4012 50.2798 42.7369 50.1443 43.0079 49.8734C43.2788 49.6024 43.4143 49.2667 43.4143 48.8662C43.4143 48.4658 43.2788 48.1301 43.0079 47.8591C42.7369 47.5884 42.4012 47.4531 42.0007 47.4531C41.6003 47.4531 41.2646 47.5884 40.9936 47.8591C40.7226 48.1301 40.5872 48.4658 40.5872 48.8662C40.5872 49.2667 40.7226 49.6024 40.9936 49.8734C41.2646 50.1443 41.6003 50.2798 42.0007 50.2798ZM40.6882 43.8857H43.3132V33.3857H40.6882V43.8857ZM42.0038 58.626C39.7043 58.626 37.5429 58.1896 35.5196 57.317C33.4963 56.4443 31.7364 55.26 30.2399 53.764C28.7433 52.2681 27.5584 50.5089 26.6852 48.4865C25.8122 46.4641 25.3757 44.3032 25.3757 42.004C25.3757 39.7045 25.8121 37.5431 26.6847 35.5199C27.5574 33.4966 28.7417 31.7366 30.2377 30.2401C31.7336 28.7436 33.4928 27.5587 35.5152 26.6854C37.5376 25.8125 39.6985 25.376 41.9977 25.376C44.2972 25.376 46.4586 25.8123 48.4819 26.685C50.5052 27.5576 52.2651 28.742 53.7616 30.2379C55.2582 31.7339 56.443 33.4931 57.3163 35.5155C58.1893 37.5379 58.6257 39.6987 58.6257 41.9979C58.6257 44.2974 58.1894 46.4588 57.3167 48.4821C56.4441 50.5054 55.2598 52.2653 53.7638 53.7619C52.2678 55.2584 50.5086 56.4433 48.4862 57.3165C46.4638 58.1895 44.303 58.626 42.0038 58.626ZM42.0007 56.001C45.9091 56.001 49.2195 54.6447 51.932 51.9322C54.6445 49.2197 56.0007 45.9093 56.0007 42.001C56.0007 38.0926 54.6445 34.7822 51.932 32.0697C49.2195 29.3572 45.9091 28.001 42.0007 28.001C38.0924 28.001 34.782 29.3572 32.0695 32.0697C29.357 34.7822 28.0007 38.0926 28.0007 42.001C28.0007 45.9093 29.357 49.2197 32.0695 51.9322C34.782 54.6447 38.0924 56.001 42.0007 56.001Z" fill="white"/>
</g>
</svg>
