<svg width="30" height="30" viewBox="0 0 30 30" fill="none" xmlns="http://www.w3.org/2000/svg">
<path d="M13.642 16.3567C13.4031 16.1183 13.1184 15.9307 12.805 15.8052L2.8925 11.8302C2.77415 11.7827 2.67315 11.7001 2.60307 11.5936C2.53299 11.4871 2.49718 11.3616 2.50045 11.2341C2.50371 11.1067 2.5459 10.9832 2.62134 10.8804C2.69678 10.7776 2.80187 10.7003 2.9225 10.6589L26.6725 2.53394C26.7833 2.49394 26.9031 2.4863 27.0181 2.51193C27.133 2.53756 27.2383 2.59539 27.3215 2.67866C27.4048 2.76193 27.4626 2.8672 27.4883 2.98214C27.5139 3.09707 27.5063 3.21693 27.4663 3.32769L19.3413 27.0777C19.2999 27.1983 19.2226 27.3034 19.1198 27.3789C19.017 27.4543 18.8935 27.4965 18.7661 27.4997C18.6386 27.503 18.5131 27.4672 18.4066 27.3971C18.3 27.327 18.2175 27.226 18.17 27.1077L14.195 17.1927C14.069 16.8796 13.8808 16.5952 13.642 16.3567ZM13.642 16.3567L27.3175 2.68394" stroke="white" stroke-width="2" stroke-linecap="round" stroke-linejoin="round"/>
</svg>
