<svg width="90" height="90" viewBox="0 0 90 90" fill="none" xmlns="http://www.w3.org/2000/svg">
<mask id="mask0_222_540" style="mask-type:alpha" maskUnits="userSpaceOnUse" x="0" y="0" width="90" height="90">
<rect width="90" height="90" fill="#D9D9D9"/>
</mask>
<g mask="url(#mask0_222_540)">
<path d="M58.5898 76.4995L45.3711 63.2808L49.3086 59.3433L58.5898 68.6245L78.5586 48.6558L82.4961 52.5933L58.5898 76.4995ZM37.4961 44.812C33.3711 44.812 29.9961 43.4995 27.3711 40.8745C24.7461 38.2495 23.4336 34.8745 23.4336 30.7495C23.4336 26.6245 24.7461 23.2495 27.3711 20.6245C29.9961 17.9995 33.3711 16.687 37.4961 16.687C41.6211 16.687 44.9961 17.9995 47.6211 20.6245C50.2461 23.2495 51.5586 26.6245 51.5586 30.7495C51.5586 34.8745 50.2461 38.2495 47.6211 40.8745C44.9961 43.4995 41.6211 44.812 37.4961 44.812ZM49.4961 52.1245L37.8711 64.2183L48.6523 74.9995H7.49609V66.187C7.49609 64.062 8.02734 62.1089 9.08984 60.3276C10.1523 58.5464 11.7461 57.187 13.8711 56.2495C18.3711 54.2495 22.4961 52.812 26.2461 51.937C29.9961 51.062 33.7461 50.6245 37.4961 50.6245C39.3086 50.6245 41.2305 50.7339 43.2617 50.9526C45.293 51.1714 47.3711 51.562 49.4961 52.1245Z" fill="#1C1B1F"/>
</g>
</svg>
