<svg width="40" height="40" viewBox="0 0 40 40" fill="none" xmlns="http://www.w3.org/2000/svg">
<mask id="mask0_264_399" style="mask-type:alpha" maskUnits="userSpaceOnUse" x="0" y="0" width="40" height="40">
<rect width="40" height="40" fill="#D9D9D9"/>
</mask>
<g mask="url(#mask0_264_399)">
<path d="M4.71893 30C3.8781 30 3.15907 29.7006 2.56185 29.1017C1.96463 28.5028 1.66602 27.7829 1.66602 26.9421C1.66602 26.101 1.96463 25.3818 2.56185 24.7846C3.15879 24.1874 3.87657 23.8888 4.71518 23.8888C4.86768 23.8888 5.01102 23.8935 5.14518 23.9029C5.27935 23.9121 5.44365 23.9444 5.6381 24L13.7214 15.9167C13.6659 15.7222 13.6335 15.5579 13.6243 15.4237C13.6152 15.2893 13.6106 15.1458 13.6106 14.9933C13.6106 14.155 13.91 13.4372 14.5089 12.84C15.1075 12.2431 15.8274 11.9446 16.6685 11.9446C17.5093 11.9446 18.2284 12.2444 18.8256 12.8442C19.4228 13.4439 19.7214 14.1647 19.7214 15.0067C19.7214 15.0578 19.6845 15.3611 19.6106 15.9167L24.0827 20.3888C24.2771 20.3332 24.4414 20.3008 24.5756 20.2917C24.71 20.2825 24.8513 20.2779 24.9993 20.2779C25.1474 20.2779 25.2887 20.2825 25.4231 20.2917C25.5573 20.3008 25.7216 20.3332 25.916 20.3888L32.3327 13.9721C32.2771 13.7776 32.2448 13.6133 32.2356 13.4792C32.2262 13.345 32.2214 13.2017 32.2214 13.0492C32.2214 12.2106 32.5209 11.4928 33.1198 10.8958C33.7187 10.2986 34.4387 10 35.2798 10C36.1206 10 36.8396 10.2994 37.4369 10.8983C38.0341 11.4972 38.3327 12.2171 38.3327 13.0579C38.3327 13.899 38.0341 14.6182 37.4369 15.2154C36.8399 15.8126 36.1221 16.1112 35.2835 16.1112C35.131 16.1112 34.9877 16.1065 34.8535 16.0971C34.7193 16.0879 34.555 16.0556 34.3606 16L27.9439 22.4167C27.9995 22.6111 28.0318 22.7754 28.041 22.9096C28.0502 23.044 28.0548 23.1875 28.0548 23.34C28.0548 24.1783 27.7553 24.8961 27.1564 25.4933C26.5578 26.0903 25.838 26.3888 24.9968 26.3888C24.156 26.3888 23.437 26.0903 22.8398 25.4933C22.2425 24.8961 21.9439 24.1783 21.9439 23.34C21.9439 23.1875 21.9485 23.044 21.9577 22.9096C21.9669 22.7754 21.9992 22.6111 22.0548 22.4167L17.5827 17.9446C17.3882 18.0001 17.2239 18.0325 17.0898 18.0417C16.9553 18.0508 16.8117 18.0554 16.6589 18.0554C16.6081 18.0554 16.3049 18.0185 15.7493 17.9446L7.66602 26.0279C7.72157 26.2224 7.75393 26.3867 7.7631 26.5208C7.77254 26.655 7.77727 26.7983 7.77727 26.9508C7.77727 27.7894 7.47782 28.5072 6.87893 29.1042C6.28004 29.7014 5.56004 30 4.71893 30Z" fill="black"/>
</g>
</svg>
