<svg width="78" height="78" viewBox="0 0 78 78" fill="none" xmlns="http://www.w3.org/2000/svg">
<circle cx="39" cy="39" r="39" fill="#FEF3C7"/>
<mask id="mask0_515_92" style="mask-type:alpha" maskUnits="userSpaceOnUse" x="19" y="19" width="40" height="40">
<rect x="19" y="19" width="40" height="40" fill="#D9D9D9"/>
</mask>
<g mask="url(#mask0_515_92)">
<path d="M36.9008 43.5844H41.0992L40.1571 38.3215C40.6804 38.0971 41.1018 37.7451 41.4212 37.2657C41.7407 36.786 41.9004 36.2533 41.9004 35.6678C41.9004 34.8686 41.6168 34.1854 41.0496 33.6182C40.4824 33.051 39.7992 32.7674 39 32.7674C38.2008 32.7674 37.5176 33.051 36.9504 33.6182C36.3832 34.1854 36.0996 34.8686 36.0996 35.6678C36.0996 36.2533 36.2593 36.786 36.5788 37.2657C36.8982 37.7451 37.3196 38.0971 37.8429 38.3215L36.9008 43.5844ZM39 54.8024C35.3953 53.8193 32.4108 51.6975 30.0467 48.4369C27.6822 45.1764 26.5 41.5311 26.5 37.5011V27.9115L39 23.2319L51.5 27.9115V37.5011C51.5 41.5311 50.3178 45.1764 47.9533 48.4369C45.5892 51.6975 42.6047 53.8193 39 54.8024ZM39 52.1678C41.8889 51.2511 44.2778 49.4178 46.1667 46.6678C48.0556 43.9178 49 40.8622 49 37.5011V29.6261L39 25.8919L29 29.6261V37.5011C29 40.8622 29.9444 43.9178 31.8333 46.6678C33.7222 49.4178 36.1111 51.2511 39 52.1678Z" fill="#1C1B1F"/>
</g>
</svg>
