<svg width="40" height="40" viewBox="0 0 40 40" fill="none" xmlns="http://www.w3.org/2000/svg">
<mask id="mask0_264_386" style="mask-type:alpha" maskUnits="userSpaceOnUse" x="0" y="0" width="40" height="40">
<rect width="40" height="40" fill="#D9D9D9"/>
</mask>
<g mask="url(#mask0_264_386)">
<path d="M7.77792 35C7.01403 35 6.36 34.7281 5.81583 34.1842C5.27194 33.64 5 32.986 5 32.2221V7.77792C5 7.01403 5.27194 6.36 5.81583 5.81583C6.36 5.27195 7.01403 5 7.77792 5H32.2221C32.986 5 33.64 5.27195 34.1842 5.81583C34.7281 6.36 35 7.01403 35 7.77792V12.8888H32.2221V7.77792H7.77792V32.2221H32.2221V27.1387H35V32.2221C35 32.986 34.7281 33.64 34.1842 34.1842C33.64 34.7281 32.986 35 32.2221 35H7.77792ZM22.1667 27.9721C21.2958 27.9721 20.5504 27.6647 19.9304 27.05C19.3101 26.4353 19 25.6964 19 24.8333V15.1946C19 14.3312 19.3101 13.5922 19.9304 12.9775C20.5504 12.3628 21.2958 12.0554 22.1667 12.0554H33.5554C34.4263 12.0554 35.1718 12.3628 35.7921 12.9775C36.4121 13.5922 36.7221 14.3312 36.7221 15.1946V24.8333C36.7221 25.6964 36.4121 26.4353 35.7921 27.05C35.1718 27.6647 34.4263 27.9721 33.5554 27.9721H22.1667ZM33.9446 25.1946V14.8333H21.7779V25.1946H33.9446ZM27.0067 22.6113C27.7336 22.6113 28.3494 22.3546 28.8542 21.8413C29.3589 21.3282 29.6112 20.7051 29.6112 19.9721C29.6112 19.2546 29.3543 18.6447 28.8404 18.1425C28.3265 17.64 27.7131 17.3888 27 17.3888C26.2869 17.3888 25.6735 17.64 25.1596 18.1425C24.6457 18.6447 24.3888 19.2546 24.3888 19.9721C24.3888 20.7051 24.6433 21.3282 25.1525 21.8413C25.6614 22.3546 26.2794 22.6113 27.0067 22.6113Z" fill="black"/>
</g>
</svg>
