<svg width="52" height="52" viewBox="0 0 52 52" fill="none" xmlns="http://www.w3.org/2000/svg">
<circle cx="26" cy="26" r="26" fill="#86E7D4"/>
<mask id="mask0_333_15" style="mask-type:alpha" maskUnits="userSpaceOnUse" x="8" y="9" width="35" height="35">
<rect x="8" y="9" width="35" height="35" fill="#D9D9D9"/>
</mask>
<g mask="url(#mask0_333_15)">
<path d="M15.7406 38.8958C15.0133 38.8958 14.3921 38.6383 13.8768 38.1232C13.3618 37.608 13.1042 36.9867 13.1042 36.2595V16.7404C13.1042 16.0132 13.3618 15.392 13.8768 14.8767C14.3921 14.3616 15.0133 14.1041 15.7406 14.1041H35.2596C35.9868 14.1041 36.6081 14.3616 37.1234 14.8767C37.6384 15.392 37.8959 16.0132 37.8959 16.7404V20.7089H35.7084V16.7404C35.7084 16.6094 35.6664 16.5019 35.5823 16.4178C35.4982 16.3337 35.3906 16.2916 35.2596 16.2916H15.7406C15.6095 16.2916 15.502 16.3337 15.4179 16.4178C15.3338 16.5019 15.2917 16.6094 15.2917 16.7404V36.2595C15.2917 36.3905 15.3338 36.498 15.4179 36.5821C15.502 36.6662 15.6095 36.7083 15.7406 36.7083H35.2596C35.3906 36.7083 35.4982 36.6662 35.5823 36.5821C35.6664 36.498 35.7084 36.3905 35.7084 36.2595V32.291H37.8959V36.2595C37.8959 36.9867 37.6384 37.608 37.1234 38.1232C36.6081 38.6383 35.9868 38.8958 35.2596 38.8958H15.7406ZM27.4072 33.0625C26.68 33.0625 26.0587 32.8049 25.5435 32.2899C25.0284 31.7746 24.7709 31.1534 24.7709 30.4262V22.5738C24.7709 21.8465 25.0284 21.2253 25.5435 20.71C26.0587 20.195 26.68 19.9375 27.4072 19.9375H36.7179C37.4452 19.9375 38.0664 20.195 38.5817 20.71C39.0967 21.2253 39.3542 21.8465 39.3542 22.5738V30.4262C39.3542 31.1534 39.0967 31.7746 38.5817 32.2899C38.0664 32.8049 37.4452 33.0625 36.7179 33.0625H27.4072ZM36.7179 30.875C36.849 30.875 36.9565 30.8329 37.0406 30.7488C37.1247 30.6647 37.1667 30.5572 37.1667 30.4262V22.5738C37.1667 22.4428 37.1247 22.3352 37.0406 22.2511C36.9565 22.167 36.849 22.125 36.7179 22.125H27.4072C27.2762 22.125 27.1687 22.167 27.0846 22.2511C27.0005 22.3352 26.9584 22.4428 26.9584 22.5738V30.4262C26.9584 30.5572 27.0005 30.6647 27.0846 30.7488C27.1687 30.8329 27.2762 30.875 27.4072 30.875H36.7179ZM31.3334 28.6875C31.9411 28.6875 32.4575 28.4748 32.8829 28.0494C33.3082 27.6241 33.5209 27.1076 33.5209 26.5C33.5209 25.8923 33.3082 25.3758 32.8829 24.9505C32.4575 24.5251 31.9411 24.3125 31.3334 24.3125C30.7258 24.3125 30.2093 24.5251 29.7839 24.9505C29.3586 25.3758 29.1459 25.8923 29.1459 26.5C29.1459 27.1076 29.3586 27.6241 29.7839 28.0494C30.2093 28.4748 30.7258 28.6875 31.3334 28.6875Z" fill="#1C1B1F"/>
</g>
</svg>
