<svg width="40" height="40" viewBox="0 0 40 40" fill="none" xmlns="http://www.w3.org/2000/svg">
<mask id="mask0_264_436" style="mask-type:alpha" maskUnits="userSpaceOnUse" x="0" y="0" width="40" height="40">
<rect width="40" height="40" fill="#D9D9D9"/>
</mask>
<g mask="url(#mask0_264_436)">
<path d="M20.0004 35.8249C19.6734 35.8249 19.3529 35.7606 19.0387 35.632C18.7245 35.5031 18.4369 35.3161 18.1758 35.0708L4.92995 21.8249C4.68467 21.5638 4.49759 21.2762 4.3687 20.962C4.24009 20.6479 4.17578 20.3273 4.17578 20.0004C4.17578 19.6734 4.24009 19.3498 4.3687 19.0295C4.49759 18.709 4.68467 18.4208 4.92995 18.1649L18.1758 4.92995C18.4369 4.67245 18.7245 4.48231 19.0387 4.35953C19.3529 4.23703 19.6734 4.17578 20.0004 4.17578C20.3273 4.17578 20.6509 4.23703 20.9712 4.35953C21.2918 4.48231 21.5799 4.67245 21.8358 4.92995L35.0708 18.1649C35.3283 18.4208 35.5184 18.709 35.6412 19.0295C35.7637 19.3498 35.8249 19.6734 35.8249 20.0004C35.8249 20.3273 35.7637 20.6479 35.6412 20.962C35.5184 21.2762 35.3283 21.5638 35.0708 21.8249L21.8358 35.0708C21.5799 35.3161 21.2918 35.5031 20.9712 35.632C20.6509 35.7606 20.3273 35.8249 20.0004 35.8249ZM20.3691 33.5708L33.5708 20.3691C33.6636 20.2836 33.7099 20.1606 33.7099 20.0004C33.7099 19.8401 33.6636 19.7172 33.5708 19.6316L20.3691 6.42995C20.2836 6.33717 20.1606 6.29078 20.0004 6.29078C19.8401 6.29078 19.7172 6.33717 19.6316 6.42995L6.42995 19.6316C6.33717 19.7172 6.29078 19.8401 6.29078 20.0004C6.29078 20.1606 6.33717 20.2836 6.42995 20.3691L19.6316 33.5708C19.7172 33.6636 19.8401 33.7099 20.0004 33.7099C20.1606 33.7099 20.2836 33.6636 20.3691 33.5708ZM18.9533 21.8112H21.0474V12.4524H18.9533V21.8112ZM20.0004 25.967C20.3123 25.967 20.5808 25.8545 20.8058 25.6295C21.0311 25.4045 21.1437 25.1361 21.1437 24.8241C21.1437 24.5122 21.0311 24.2437 20.8058 24.0187C20.5808 23.7934 20.3123 23.6808 20.0004 23.6808C19.6884 23.6808 19.4199 23.7934 19.1949 24.0187C18.9697 24.2437 18.857 24.5122 18.857 24.8241C18.857 25.1361 18.9697 25.4045 19.1949 25.6295C19.4199 25.8545 19.6884 25.967 20.0004 25.967Z" fill="black"/>
</g>
</svg>
